<svg width="733" height="56" viewBox="0 0 733 56" fill="none" xmlns="http://www.w3.org/2000/svg">
<path d="M1.28265 15.8787C2.03435 11.6055 5.81876 8.63445 10.1576 8.63445L723.01 8.63443C727.488 8.63443 731.352 11.7952 731.99 16.2269C732.517 19.8904 733.006 24.2369 733 27.7294C732.994 31.1355 732.514 35.3645 731.995 38.9489C731.354 43.3777 727.491 46.5342 723.016 46.5342L10.1393 46.5343C5.80896 46.5343 2.02767 43.5726 1.26697 39.3095C0.627315 35.7248 0.0203586 31.4328 0.000513875 27.9711C-0.0206569 24.2781 0.615708 19.67 1.28265 15.8787Z" fill="white" fill-opacity="0.2"/>
<path d="M13.1391 9.65502C14.1683 3.96223 19.2093 1.00771e-06 24.9944 2.43748e-06L708.284 0.000171311C714.254 0.000172787 719.401 4.21344 720.277 10.1188C721.094 15.6337 721.893 22.4118 721.883 27.7956C721.874 33.0523 721.089 39.6555 720.283 45.0594C719.404 50.9607 714.258 55.1688 708.292 55.1688L24.97 55.1686C19.1961 55.1686 14.1601 51.2209 13.1185 45.5417C12.1309 40.1566 11.1446 33.4761 11.114 28.1473C11.0815 22.4791 12.1132 15.3299 13.1391 9.65502Z" fill="#C8C8C8"/>
</svg>
