<svg width="12" height="13" viewBox="0 0 12 13" fill="none" xmlns="http://www.w3.org/2000/svg">
<path d="M11.3768 11.3468C11.3988 11.4292 11.4043 11.5151 11.3928 11.5996C11.3813 11.6841 11.3532 11.7655 11.31 11.839C11.2668 11.9125 11.2094 11.9767 11.1411 12.0279C11.0729 12.079 10.9952 12.1161 10.9125 12.1369L10.7496 12.1614C10.6047 12.161 10.464 12.1129 10.3492 12.0246C10.2344 11.9362 10.1518 11.8126 10.1143 11.6726C9.86022 10.695 9.2889 9.82941 8.4899 9.21149C7.69089 8.59357 6.70939 8.25833 5.69933 8.25833C4.68926 8.25833 3.70776 8.59357 2.90875 9.21149C2.10975 9.82941 1.53843 10.695 1.2844 11.6726C1.26263 11.7556 1.22468 11.8335 1.17273 11.9018C1.12079 11.9701 1.05587 12.0275 0.981701 12.0706C0.907531 12.1137 0.825572 12.1418 0.740528 12.1532C0.655484 12.1646 0.569028 12.1591 0.486124 12.1369C0.403444 12.1161 0.325732 12.079 0.257506 12.0279C0.18928 11.9767 0.131899 11.9125 0.088699 11.839C0.0454986 11.7655 0.01734 11.6841 0.00585932 11.5996C-0.00562132 11.5151 -0.000194976 11.4292 0.0218231 11.3468C0.242609 10.4889 0.654863 9.69219 1.22764 9.01643C1.80041 8.34067 2.51883 7.80344 3.32895 7.44507C2.67841 6.94915 2.19979 6.26169 1.96048 5.47948C1.72118 4.69726 1.73323 3.85969 1.99494 3.08468C2.25665 2.30967 2.75485 1.63627 3.41938 1.15927C4.08392 0.682278 4.88132 0.42572 5.69933 0.42572C6.51733 0.42572 7.31473 0.682278 7.97927 1.15927C8.6438 1.63627 9.142 2.30967 9.40371 3.08468C9.66543 3.85969 9.67747 4.69726 9.43817 5.47948C9.19886 6.26169 8.72024 6.94915 8.0697 7.44507C8.87982 7.80344 9.59824 8.34067 10.171 9.01643C10.7438 9.69219 11.156 10.4889 11.3768 11.3468ZM5.69933 6.94818C6.21486 6.94818 6.71882 6.79531 7.14748 6.50889C7.57613 6.22247 7.91022 5.81538 8.10751 5.33908C8.3048 4.86279 8.35642 4.33869 8.25584 3.83306C8.15526 3.32743 7.90701 2.86298 7.54247 2.49844C7.17793 2.1339 6.71348 1.88564 6.20785 1.78506C5.70222 1.68449 5.17812 1.73611 4.70182 1.9334C4.22553 2.13068 3.81843 2.46478 3.53202 2.89343C3.2456 3.32208 3.09272 3.82604 3.09272 4.34158C3.09487 5.03223 3.37019 5.69398 3.85855 6.18235C4.34692 6.67072 5.00867 6.94603 5.69933 6.94818Z" fill="#909AB2"/>
</svg>
